<mxfile host="app.diagrams.net" agent="Mozilla/5.0 (Windows NT 10.0; Win64; x64) AppleWebKit/537.36 (KHTML, like Gecko) Chrome/129.0.0.0 Safari/537.36" version="24.7.16">
  <diagram name="Page-1" id="Rxr42GNauVFg2fqmSGNI">
    <mxGraphModel dx="1050" dy="557" grid="1" gridSize="10" guides="1" tooltips="1" connect="1" arrows="1" fold="1" page="1" pageScale="1" pageWidth="850" pageHeight="1100" math="0" shadow="0">
      <root>
        <mxCell id="0" />
        <mxCell id="1" parent="0" />
        <mxCell id="LViP2LsmFuF8rhmkue0k-7" style="edgeStyle=orthogonalEdgeStyle;rounded=0;orthogonalLoop=1;jettySize=auto;html=1;exitX=0.5;exitY=1;exitDx=0;exitDy=0;entryX=0;entryY=0.5;entryDx=0;entryDy=0;" edge="1" parent="1" source="LViP2LsmFuF8rhmkue0k-1" target="LViP2LsmFuF8rhmkue0k-4">
          <mxGeometry relative="1" as="geometry" />
        </mxCell>
        <mxCell id="LViP2LsmFuF8rhmkue0k-1" value="IOT Device" style="rounded=0;whiteSpace=wrap;html=1;" vertex="1" parent="1">
          <mxGeometry x="130" y="150" width="120" height="60" as="geometry" />
        </mxCell>
        <mxCell id="LViP2LsmFuF8rhmkue0k-8" style="edgeStyle=orthogonalEdgeStyle;rounded=0;orthogonalLoop=1;jettySize=auto;html=1;exitX=0.5;exitY=1;exitDx=0;exitDy=0;entryX=0.5;entryY=0;entryDx=0;entryDy=0;" edge="1" parent="1" source="LViP2LsmFuF8rhmkue0k-2" target="LViP2LsmFuF8rhmkue0k-4">
          <mxGeometry relative="1" as="geometry" />
        </mxCell>
        <mxCell id="LViP2LsmFuF8rhmkue0k-2" value="PUF Model" style="rounded=0;whiteSpace=wrap;html=1;" vertex="1" parent="1">
          <mxGeometry x="330" y="150" width="120" height="60" as="geometry" />
        </mxCell>
        <mxCell id="LViP2LsmFuF8rhmkue0k-9" style="edgeStyle=orthogonalEdgeStyle;rounded=0;orthogonalLoop=1;jettySize=auto;html=1;exitX=0.5;exitY=1;exitDx=0;exitDy=0;entryX=1;entryY=0.5;entryDx=0;entryDy=0;" edge="1" parent="1" source="LViP2LsmFuF8rhmkue0k-3" target="LViP2LsmFuF8rhmkue0k-4">
          <mxGeometry relative="1" as="geometry" />
        </mxCell>
        <mxCell id="LViP2LsmFuF8rhmkue0k-3" value="Cryptographic&amp;nbsp;&lt;div&gt;Engine&lt;/div&gt;" style="rounded=0;whiteSpace=wrap;html=1;" vertex="1" parent="1">
          <mxGeometry x="540" y="150" width="120" height="60" as="geometry" />
        </mxCell>
        <mxCell id="LViP2LsmFuF8rhmkue0k-10" style="edgeStyle=orthogonalEdgeStyle;rounded=0;orthogonalLoop=1;jettySize=auto;html=1;exitX=0.5;exitY=1;exitDx=0;exitDy=0;entryX=0.5;entryY=0;entryDx=0;entryDy=0;" edge="1" parent="1" source="LViP2LsmFuF8rhmkue0k-4" target="LViP2LsmFuF8rhmkue0k-5">
          <mxGeometry relative="1" as="geometry" />
        </mxCell>
        <mxCell id="LViP2LsmFuF8rhmkue0k-4" value="Authentication System" style="rounded=0;whiteSpace=wrap;html=1;" vertex="1" parent="1">
          <mxGeometry x="330" y="290" width="120" height="60" as="geometry" />
        </mxCell>
        <mxCell id="LViP2LsmFuF8rhmkue0k-11" style="edgeStyle=orthogonalEdgeStyle;rounded=0;orthogonalLoop=1;jettySize=auto;html=1;exitX=0.5;exitY=1;exitDx=0;exitDy=0;entryX=0.5;entryY=0;entryDx=0;entryDy=0;" edge="1" parent="1" source="LViP2LsmFuF8rhmkue0k-5" target="LViP2LsmFuF8rhmkue0k-6">
          <mxGeometry relative="1" as="geometry" />
        </mxCell>
        <mxCell id="LViP2LsmFuF8rhmkue0k-5" value="Data Transmission" style="rounded=0;whiteSpace=wrap;html=1;" vertex="1" parent="1">
          <mxGeometry x="330" y="420" width="120" height="60" as="geometry" />
        </mxCell>
        <mxCell id="LViP2LsmFuF8rhmkue0k-6" value="User Interface" style="rounded=0;whiteSpace=wrap;html=1;" vertex="1" parent="1">
          <mxGeometry x="330" y="550" width="120" height="60" as="geometry" />
        </mxCell>
      </root>
    </mxGraphModel>
  </diagram>
</mxfile>
